<?xml version="1.0" encoding="UTF-8" standalone="yes"?><svg font-family="Helvetica" xmlns="http://www.w3.org/2000/svg" xmlns:xlink="http://www.w3.org/1999/xlink" height="175pt" style="width:235px;height:175px;" version="1.1" viewBox="0 0 235 175" width="235pt"><defs><linearGradient id="gr0" x1="0%" x2="100%" y1="0%" y2="100%"><stop offset="0%" stop-color="#EEF5F9"/><stop offset="100%" stop-color="#CEE7F6"/></linearGradient><filter height="300%" id="f1" width="300%" x="-1" y="-1"><feGaussianBlur result="blurOut" stdDeviation="2"/><feColorMatrix in="blurOut" result="blurOut2" type="matrix" values="0 0 0 0 0 0 0 0 0 0 0 0 0 0 0 0 0 0 .4 0"/><feOffset dx="4" dy="4" in="blurOut2" result="blurOut3"/><feBlend in="SourceGraphic" in2="blurOut3" mode="normal"/></filter></defs><g><rect fill="url(#gr0)" filter="url(#f1)" height="55.8359" style="stroke: #000000; stroke-width: 1.5;" width="89" x="6" y="8"/><ellipse cx="29.25" cy="21" fill="#ADD1B2" rx="8" ry="8" style="stroke: #000000; stroke-width: 1.0;"/><path d="M30.5,21.6406 L31.625,22 Q31.3594,22.9375 30.7578,23.3906 Q30.1563,23.8438 29.2344,23.8438 Q28.0938,23.8438 27.3594,23.0625 Q26.625,22.2813 26.625,20.9375 Q26.625,19.5 27.3672,18.7109 Q28.1094,17.9219 29.3125,17.9219 Q30.3594,17.9219 31.0156,18.5469 Q31.4063,18.9063 31.6094,19.5938 L30.4531,19.875 Q30.3594,19.4219 30.0391,19.1641 Q29.7188,18.9063 29.25,18.9063 Q28.6094,18.9063 28.2188,19.3672 Q27.8281,19.8281 27.8281,20.8438 Q27.8281,21.9375 28.2188,22.3984 Q28.6094,22.8594 29.2344,22.8594 Q29.6875,22.8594 30.0234,22.5625 Q30.3594,22.2656 30.5,21.6406 Z "/><text fill="#000000" font-size="12" lengthAdjust="spacingAndGlyphs" textLength="38" x="42.75" y="25.4531">Animal</text><line style="stroke: #000000; stroke-width: 1.5;" x1="7" x2="94" y1="34" y2="34"/><ellipse cx="17" cy="46.418" fill="none" rx="3" ry="3" style="stroke: #038048; stroke-width: 1.0;"/><text fill="#000000" font-size="11" lengthAdjust="spacingAndGlyphs" textLength="66" x="23" y="49">alive: boolean</text><line style="stroke: #000000; stroke-width: 1.5;" x1="7" x2="94" y1="55.8359" y2="55.8359"/><rect fill="url(#gr0)" filter="url(#f1)" height="55.8359" style="stroke: #000000; stroke-width: 1.5;" width="96" x="130.25" y="8"/><ellipse cx="149.45" cy="21" fill="#A9DCDF" rx="8" ry="8" style="stroke: #000000; stroke-width: 1.0;"/><path d="M152.2,23.5 L150.9344,23.5 L150.4344,22.2031 L148.1531,22.2031 L147.6844,23.5 L146.45,23.5 L148.6844,17.7656 L149.9031,17.7656 L152.2,23.5 Z M150.075,21.2344 L149.2781,19.1094 L148.5125,21.2344 L150.075,21.2344 Z "/><text fill="#000000" font-size="12" font-style="italic" lengthAdjust="spacingAndGlyphs" textLength="54" x="162.05" y="25.4531">Carnivore</text><line style="stroke: #000000; stroke-width: 1.5;" x1="131.25" x2="225.25" y1="34" y2="34"/><line style="stroke: #000000; stroke-width: 1.5;" x1="131.25" x2="225.25" y1="42" y2="42"/><ellipse cx="141.25" cy="54.418" fill="#84BE84" rx="3" ry="3" style="stroke: #038048; stroke-width: 1.0;"/><text fill="#000000" font-size="11" lengthAdjust="spacingAndGlyphs" textLength="73" x="147.25" y="57">eatFlesh(flesh)</text><rect fill="url(#gr0)" filter="url(#f1)" height="42" style="stroke: #000000; stroke-width: 1.5;" width="81" x="10" y="124"/><ellipse cx="22" cy="137" fill="#ADD1B2" rx="8" ry="8" style="stroke: #000000; stroke-width: 1.0;"/><path d="M23.25,137.6406 L24.375,138 Q24.1094,138.9375 23.5078,139.3906 Q22.9063,139.8438 21.9844,139.8438 Q20.8438,139.8438 20.1094,139.0625 Q19.375,138.2813 19.375,136.9375 Q19.375,135.5 20.1172,134.7109 Q20.8594,133.9219 22.0625,133.9219 Q23.1094,133.9219 23.7656,134.5469 Q24.1563,134.9063 24.3594,135.5938 L23.2031,135.875 Q23.1094,135.4219 22.7891,135.1641 Q22.4688,134.9063 22,134.9063 Q21.3594,134.9063 20.9688,135.3672 Q20.5781,135.8281 20.5781,136.8438 Q20.5781,137.9375 20.9688,138.3984 Q21.3594,138.8594 21.9844,138.8594 Q22.4375,138.8594 22.7734,138.5625 Q23.1094,138.2656 23.25,137.6406 Z "/><text fill="#000000" font-size="12" lengthAdjust="spacingAndGlyphs" textLength="55" x="33" y="141.4531">Organism</text><line style="stroke: #000000; stroke-width: 1.5;" x1="11" x2="90" y1="150" y2="150"/><line style="stroke: #000000; stroke-width: 1.5;" x1="11" x2="90" y1="158" y2="158"/><path d="M50.25,84.1536 C50.25,98.0521 50.25,112.5301 50.25,123.7641 " fill="none" style="stroke: #000000; stroke-width: 1.0;"/><polygon fill="none" points="43.2501,84.0007,50.25,64.001,57.2501,84.0006,43.2501,84.0007" style="stroke: #000000; stroke-width: 1.0;"/></g></svg>