<?xml version="1.0" encoding="UTF-8" standalone="yes"?><svg font-family="Helvetica" xmlns="http://www.w3.org/2000/svg" xmlns:xlink="http://www.w3.org/1999/xlink" height="174pt" style="width:104px;height:174px;" version="1.1" viewBox="0 0 104 174" width="104pt"><defs><linearGradient id="gr0" x1="0%" x2="100%" y1="0%" y2="100%"><stop offset="0%" stop-color="#EEF5F9"/><stop offset="100%" stop-color="#CEE7F6"/></linearGradient><filter height="300%" id="f1" width="300%" x="-1" y="-1"><feGaussianBlur result="blurOut" stdDeviation="2"/><feColorMatrix in="blurOut" result="blurOut2" type="matrix" values="0 0 0 0 0 0 0 0 0 0 0 0 0 0 0 0 0 0 .4 0"/><feOffset dx="4" dy="4" in="blurOut2" result="blurOut3"/><feBlend in="SourceGraphic" in2="blurOut3" mode="normal"/></filter></defs><g><rect fill="url(#gr0)" filter="url(#f1)" height="55.8359" style="stroke: #000000; stroke-width: 1.5;" width="89" x="6" y="110"/><ellipse cx="21.6" cy="123" fill="#ADD1B2" rx="8" ry="8" style="stroke: #000000; stroke-width: 1.0;"/><path d="M22.85,123.6406 L23.975,124 Q23.7094,124.9375 23.1078,125.3906 Q22.5063,125.8438 21.5844,125.8438 Q20.4438,125.8438 19.7094,125.0625 Q18.975,124.2813 18.975,122.9375 Q18.975,121.5 19.7172,120.7109 Q20.4594,119.9219 21.6625,119.9219 Q22.7094,119.9219 23.3656,120.5469 Q23.7563,120.9063 23.9594,121.5938 L22.8031,121.875 Q22.7094,121.4219 22.3891,121.1641 Q22.0688,120.9063 21.6,120.9063 Q20.9594,120.9063 20.5688,121.3672 Q20.1781,121.8281 20.1781,122.8438 Q20.1781,123.9375 20.5688,124.3984 Q20.9594,124.8594 21.5844,124.8594 Q22.0375,124.8594 22.3734,124.5625 Q22.7094,124.2656 22.85,123.6406 Z "/><text fill="#000000" font-size="12" lengthAdjust="spacingAndGlyphs" textLength="55" x="33.4" y="127.4531">Organism</text><line style="stroke: #000000; stroke-width: 1.5;" x1="7" x2="94" y1="136" y2="136"/><ellipse cx="17" cy="148.418" fill="none" rx="3" ry="3" style="stroke: #038048; stroke-width: 1.0;"/><text fill="#000000" font-size="11" lengthAdjust="spacingAndGlyphs" textLength="66" x="23" y="151">alive: boolean</text><line style="stroke: #000000; stroke-width: 1.5;" x1="7" x2="94" y1="157.8359" y2="157.8359"/><rect fill="url(#gr0)" filter="url(#f1)" height="42" style="stroke: #000000; stroke-width: 1.5;" width="64" x="18.25" y="8"/><ellipse cx="30.25" cy="21" fill="#ADD1B2" rx="8" ry="8" style="stroke: #000000; stroke-width: 1.0;"/><path d="M31.5,21.6406 L32.625,22 Q32.3594,22.9375 31.7578,23.3906 Q31.1563,23.8438 30.2344,23.8438 Q29.0938,23.8438 28.3594,23.0625 Q27.625,22.2813 27.625,20.9375 Q27.625,19.5 28.3672,18.7109 Q29.1094,17.9219 30.3125,17.9219 Q31.3594,17.9219 32.0156,18.5469 Q32.4063,18.9063 32.6094,19.5938 L31.4531,19.875 Q31.3594,19.4219 31.0391,19.1641 Q30.7188,18.9063 30.25,18.9063 Q29.6094,18.9063 29.2188,19.3672 Q28.8281,19.8281 28.8281,20.8438 Q28.8281,21.9375 29.2188,22.3984 Q29.6094,22.8594 30.2344,22.8594 Q30.6875,22.8594 31.0234,22.5625 Q31.3594,22.2656 31.5,21.6406 Z "/><text fill="#000000" font-size="12" lengthAdjust="spacingAndGlyphs" textLength="38" x="41.25" y="25.4531">Animal</text><line style="stroke: #000000; stroke-width: 1.5;" x1="19.25" x2="81.25" y1="34" y2="34"/><line style="stroke: #000000; stroke-width: 1.5;" x1="19.25" x2="81.25" y1="42" y2="42"/><path d="M50.25,70.5125 C50.25,83.6021 50.25,97.7957 50.25,109.6944 " fill="none" style="stroke: #000000; stroke-width: 1.0;"/><polygon fill="none" points="43.2501,70.1259,50.25,50.126,57.2501,70.1258,43.2501,70.1259" style="stroke: #000000; stroke-width: 1.0;"/></g></svg>