<?xml version="1.0" encoding="UTF-8" standalone="yes"?><svg font-family="Helvetica" xmlns="http://www.w3.org/2000/svg" xmlns:xlink="http://www.w3.org/1999/xlink" height="86pt" style="width:164px;height:86px;" version="1.1" viewBox="0 0 164 86" width="164pt"><defs><linearGradient id="gr0" x1="0%" x2="100%" y1="0%" y2="100%"><stop offset="0%" stop-color="#EEF5F9"/><stop offset="100%" stop-color="#CEE7F6"/></linearGradient><filter height="300%" id="f1" width="300%" x="-1" y="-1"><feGaussianBlur result="blurOut" stdDeviation="2"/><feColorMatrix in="blurOut" result="blurOut2" type="matrix" values="0 0 0 0 0 0 0 0 0 0 0 0 0 0 0 0 0 0 .4 0"/><feOffset dx="4" dy="4" in="blurOut2" result="blurOut3"/><feBlend in="SourceGraphic" in2="blurOut3" mode="normal"/></filter></defs><g><rect fill="url(#gr0)" filter="url(#f1)" height="69.6719" style="stroke: #000000; stroke-width: 1.5;" width="149" x="6" y="8"/><ellipse cx="62" cy="21" fill="#A9DCDF" rx="8" ry="8" style="stroke: #000000; stroke-width: 1.0;"/><path d="M64.75,23.5 L63.4844,23.5 L62.9844,22.2031 L60.7031,22.2031 L60.2344,23.5 L59,23.5 L61.2344,17.7656 L62.4531,17.7656 L64.75,23.5 Z M62.625,21.2344 L61.8281,19.1094 L61.0625,21.2344 L62.625,21.2344 Z "/><text fill="#000000" font-size="12" font-style="italic" lengthAdjust="spacingAndGlyphs" textLength="30" x="78" y="25.4531">Chart</text><line style="stroke: #000000; stroke-width: 1.5;" x1="7" x2="154" y1="34" y2="34"/><line style="stroke: #000000; stroke-width: 1.5;" x1="7" x2="154" y1="42" y2="42"/><ellipse cx="17" cy="54.418" fill="#84BE84" rx="3" ry="3" style="stroke: #038048; stroke-width: 1.0;"/><text fill="#000000" font-size="11" lengthAdjust="spacingAndGlyphs" textLength="125" x="23" y="57">addXAxis (object options)</text><ellipse cx="17" cy="68.2539" fill="#84BE84" rx="3" ry="3" style="stroke: #038048; stroke-width: 1.0;"/><text fill="#000000" font-size="11" lengthAdjust="spacingAndGlyphs" textLength="126" x="23" y="70.8359">addYAxis (object options)</text></g></svg>